<svg xmlns="http://www.w3.org/2000/svg" xmlns:xlink="http://www.w3.org/1999/xlink" viewBox="0 0 512 512"><defs><linearGradient id="a" x1="256" y1="512" x2="256" gradientUnits="userSpaceOnUse"><stop offset="0" stop-color="#0000dc"/><stop offset="1" stop-color="blue"/></linearGradient></defs><circle cx="256" cy="256" r="256" fill="url(#a)"/><path d="M95.46,295.85l13.09-78c1.4-7.8,2.23-13.92,2.23-19.21,0-7-1.67-12.82-5.57-20.34,13.93-5.56,33.42-13.64,47.34-20.88L129.16,295.85a130.28,130.28,0,0,0-2.51,24.22,63.15,63.15,0,0,0,3.63,22.28H79C89.9,326.2,92.68,313.11,95.46,295.85Z" fill="#fff"/><path d="M167,295.85l13.09-78c1.39-7.8,2.22-13.92,2.22-19.21,0-7-1.67-12.82-5.57-20.34,13.93-5.56,33.42-13.64,47.35-20.88l-23.4,138.41a130.22,130.22,0,0,0-2.5,24.22,63.13,63.13,0,0,0,3.62,22.28H150.6C161.46,326.2,164.24,313.11,167,295.85Z" fill="#fff"/><path d="M271.17,295.57a79.8,79.8,0,0,0-.83,9.19c0,6.41,2,13.09,11.14,13.09,6.12,0,12-2.79,18.38-7.24-2.79,18.66-20.89,34.81-41.78,34.81-14.2,0-24.22-7.52-24.22-26.18a65.42,65.42,0,0,1,1.11-12L251.12,212H235l3.06-9.75h14.48c.84-6.12,1.68-13.08,2.51-22.55a243.18,243.18,0,0,0,38.71-17.82l-6.68,40.37h32.3L316,212H285.38Z" fill="#fff"/><path d="M433,226.78A64.36,64.36,0,0,1,431.85,239l-9.47,56.81a146.59,146.59,0,0,0-2.5,25.34,113.12,113.12,0,0,0,1.95,21.16H383.67a286.92,286.92,0,0,1,4.18-45.67l8.91-52.35a47.88,47.88,0,0,0,.56-8.36c0-9.47-3.62-13.36-12-13.36-5.57,0-13.36,2.5-22,10.86L351.93,301.7c-1.39,8.63-2.51,15.59-2.51,23.11a81.88,81.88,0,0,0,2.23,17.54H304c8.35-14.76,10.86-25.06,13.36-40.65l17-99.7c1.67-9.75,3.06-18.94,3.06-27.57a54.41,54.41,0,0,0-1.94-15,268,268,0,0,0,43.16-15.6l-13.92,81.88c12.25-17.82,28.4-25.9,43.44-25.9C424.05,199.77,433,208.68,433,226.78Z" fill="#fff"/></svg>